<?xml version="1.0" encoding="UTF-8"?>
<!DOCTYPE svg PUBLIC "-//W3C//DTD SVG 1.1//EN" "http://www.w3.org/Graphics/SVG/1.1/DTD/svg11.dtd">
<!-- Creator: CorelDRAW 2018 (64 Bit Versión de evaluación) -->
<svg xmlns="http://www.w3.org/2000/svg" xml:space="preserve" width="10.5158mm" height="10.5158mm" version="1.1" style="shape-rendering:geometricPrecision; text-rendering:geometricPrecision; image-rendering:optimizeQuality; fill-rule:evenodd; clip-rule:evenodd"
viewBox="0 0 33.59 33.59"
 xmlns:xlink="http://www.w3.org/1999/xlink">
 <defs>
  <style type="text/css">
   <![CDATA[
    .str0 {stroke:#8562A3;stroke-width:0.8;stroke-miterlimit:22.9256}
    .fil0 {fill:none}
    .fil1 {fill:#348EA8}
   ]]>
  </style>
 </defs>
 <g id="Capa_x0020_1">
  <metadata id="CorelCorpID_0Corel-Layer"/>
  <g id="_2328534371856">
   <circle class="fil0 str0" cx="16.79" cy="16.79" r="16.39"/>
   <g>
    <g>
     <path class="fil1" d="M11.24 23.67c1.56,1.27 3.54,1.96 5.55,1.96 4.87,0 8.84,-3.96 8.84,-8.84 0,-4.87 -3.96,-8.84 -8.84,-8.84 -2.02,0 -3.99,0.7 -5.55,1.96 -1.54,1.25 -2.63,2.99 -3.07,4.92 -0.06,0.25 0.1,0.5 0.35,0.56 0.25,0.06 0.5,-0.1 0.56,-0.35 0.82,-3.62 3.99,-6.15 7.71,-6.15 4.36,0 7.91,3.55 7.91,7.91 0,4.36 -3.55,7.91 -7.91,7.91 -3.72,0 -6.89,-2.53 -7.71,-6.15 -0.06,-0.25 -0.31,-0.41 -0.56,-0.35 -0.25,0.06 -0.41,0.31 -0.35,0.56 0.43,1.92 1.52,3.67 3.07,4.92z"/>
     <path class="fil1" d="M27.78 12.12c-0.1,-0.24 -0.37,-0.35 -0.61,-0.25 -0.24,0.1 -0.35,0.37 -0.25,0.61 0.58,1.36 0.88,2.82 0.88,4.31 0,6.07 -4.94,11.01 -11.01,11.01 -6.07,0 -11.01,-4.94 -11.01,-11.01 0,-6.07 4.94,-11.01 11.01,-11.01 1.5,0 2.95,0.29 4.31,0.88 0.24,0.1 0.51,-0.01 0.61,-0.25 0.1,-0.24 -0.01,-0.51 -0.25,-0.61 -1.48,-0.63 -3.05,-0.95 -4.68,-0.95 -3.19,0 -6.19,1.24 -8.44,3.5 -2.25,2.25 -3.5,5.25 -3.5,8.44 0,3.19 1.24,6.19 3.5,8.44 2.25,2.25 5.25,3.5 8.44,3.5 3.19,0 6.19,-1.24 8.44,-3.5 2.25,-2.25 3.5,-5.25 3.5,-8.44 0,-1.62 -0.32,-3.2 -0.95,-4.68z"/>
     <path class="fil1" d="M22.41 8.88l2.06 0 0 2.16c0,0.26 0.21,0.47 0.47,0.47 0.26,0 0.47,-0.21 0.47,-0.47l0 -2.16 2.06 0c0.26,0 0.47,-0.21 0.47,-0.47 0,-0.26 -0.21,-0.47 -0.47,-0.47l-2.06 0 0 -2.16c0,-0.26 -0.21,-0.47 -0.47,-0.47 -0.26,0 -0.47,0.21 -0.47,0.47l0 2.16 -2.06 0c-0.26,0 -0.47,0.21 -0.47,0.47 0,0.26 0.21,0.47 0.47,0.47z"/>
     <path class="fil1" d="M16.07 19.32c0,1.55 1.26,2.82 2.82,2.82 1.55,0 2.82,-1.26 2.82,-2.82 0,-0.98 -0.5,-1.85 -1.27,-2.35 0.76,-0.5 1.27,-1.37 1.27,-2.35 0,-1.55 -1.26,-2.82 -2.82,-2.82 -1.55,0 -2.82,1.26 -2.82,2.82 0,0.98 0.5,1.85 1.27,2.35 -0.76,0.5 -1.27,1.37 -1.27,2.35zm0.93 -4.7c0,-1.04 0.85,-1.88 1.88,-1.88 1.04,0 1.88,0.85 1.88,1.88 0,1.04 -0.85,1.88 -1.88,1.88 -1.04,0 -1.88,-0.85 -1.88,-1.88zm1.88 2.82c1.04,0 1.88,0.85 1.88,1.88 0,1.04 -0.85,1.88 -1.88,1.88 -1.04,0 -1.88,-0.85 -1.88,-1.88 0,-1.04 0.85,-1.88 1.88,-1.88z"/>
     <path class="fil1" d="M14.02 12.41c-0,-0 -0,-0.01 -0,-0.01 -0,-0.01 -0,-0.03 -0.01,-0.04 -0,-0 -0,-0.01 -0,-0.01 -0,-0.01 -0.01,-0.02 -0.01,-0.04 -0,-0.01 -0.01,-0.02 -0.01,-0.02 -0,-0.01 -0,-0.01 -0.01,-0.02 -0.01,-0.01 -0.01,-0.03 -0.02,-0.04 -0,-0 -0,-0 -0,-0 -0.01,-0.01 -0.02,-0.03 -0.02,-0.04 -0,-0 -0,-0.01 -0.01,-0.01 -0.01,-0.01 -0.01,-0.02 -0.02,-0.03 -0,-0 -0,-0 -0,-0 -0,-0 -0.01,-0.01 -0.01,-0.01 -0.01,-0.01 -0.01,-0.01 -0.02,-0.02 -0.01,-0.01 -0.01,-0.01 -0.02,-0.01 -0.01,-0.01 -0.01,-0.01 -0.02,-0.02 -0.01,-0.01 -0.01,-0.01 -0.02,-0.01 -0.01,-0 -0.01,-0.01 -0.02,-0.01 -0.01,-0 -0.01,-0.01 -0.02,-0.01 -0.01,-0 -0.01,-0.01 -0.02,-0.01 -0.01,-0 -0.01,-0.01 -0.02,-0.01 -0.01,-0 -0.02,-0.01 -0.02,-0.01 -0.01,-0 -0.01,-0 -0.02,-0.01 -0.01,-0 -0.02,-0.01 -0.03,-0.01 -0.01,-0 -0.01,-0 -0.02,-0 -0.01,-0 -0.02,-0 -0.03,-0.01 -0.01,-0 -0.01,-0 -0.02,-0 -0.01,-0 -0.02,-0 -0.02,-0 -0.01,-0 -0.02,-0 -0.03,-0 -0.01,0 -0.01,-0 -0.02,-0 -0,0 -0,0 -0,0 -0.01,0 -0.02,0 -0.03,0 -0.01,0 -0.01,0 -0.02,0 -0.01,0 -0.02,0 -0.04,0.01 -0.01,0 -0.02,0 -0.03,0.01 -0.01,0 -0.02,0 -0.03,0.01 -0.01,0 -0.02,0.01 -0.03,0.01 -0.01,0 -0.01,0 -0.02,0.01 -0.01,0.01 -0.02,0.01 -0.04,0.02 -0,0 -0,0 -0.01,0 -0.01,0.01 -0.03,0.02 -0.04,0.02 -0,0 -0.01,0.01 -0.01,0.01 -0.01,0.01 -0.02,0.01 -0.03,0.02 -0,0 -0,0 -0,0l-1.85 1.56c-0.2,0.17 -0.22,0.46 -0.06,0.66 0.09,0.11 0.22,0.17 0.36,0.17 0.11,0 0.21,-0.04 0.3,-0.11l1.08 -0.91 0 8.04c0,0.26 0.21,0.47 0.47,0.47 0.26,0 0.47,-0.21 0.47,-0.47l0 -9.04c0,-0 -0,-0 -0,-0 0,-0.01 -0,-0.02 -0,-0.03z"/>
     <path class="fil1" d="M8.89 16.79c0,-0.26 -0.21,-0.47 -0.47,-0.47 -0.26,0 -0.47,0.21 -0.47,0.47 0,0.26 0.21,0.47 0.47,0.47 0.26,0 0.47,-0.21 0.47,-0.47z"/>
    </g>
   </g>
  </g>
 </g>
</svg>
