<?xml version="1.0" encoding="UTF-8"?>
<!DOCTYPE svg PUBLIC "-//W3C//DTD SVG 1.1//EN" "http://www.w3.org/Graphics/SVG/1.1/DTD/svg11.dtd">
<!-- Creator: CorelDRAW 2018 (64 Bit Versión de evaluación) -->
<svg xmlns="http://www.w3.org/2000/svg" xml:space="preserve" width="10.5158mm" height="10.5158mm" version="1.1" style="shape-rendering:geometricPrecision; text-rendering:geometricPrecision; image-rendering:optimizeQuality; fill-rule:evenodd; clip-rule:evenodd"
viewBox="0 0 33.59 33.59"
 xmlns:xlink="http://www.w3.org/1999/xlink">
 <defs>
  <style type="text/css">
   <![CDATA[
    .str0 {stroke:#8562A3;stroke-width:0.8;stroke-miterlimit:22.9256}
    .fil1 {fill:none}
    .fil0 {fill:#348EA8}
   ]]>
  </style>
 </defs>
 <g id="Capa_x0020_1">
  <metadata id="CorelCorpID_0Corel-Layer"/>
  <g id="_2328304144208">
   <g>
    <path class="fil0" d="M26.04 14.57c-0.82,-0.41 -2.37,-0.42 -2.43,-0.42 -0.2,0 -0.35,0.16 -0.35,0.35 0,0.2 0.16,0.35 0.35,0.35 0.4,0 1.55,0.06 2.11,0.34 0.05,0.03 0.1,0.04 0.16,0.04 0.13,0 0.25,-0.07 0.32,-0.2 0.09,-0.17 0.02,-0.39 -0.16,-0.47z"/>
    <path class="fil0" d="M27.8 19.61l-1.46 -0.42c-0.06,-0.02 -0.11,-0.08 -0.11,-0.14l0 -0.49c0.12,-0.08 0.23,-0.17 0.34,-0.28 0.51,-0.5 0.8,-1.17 0.8,-1.88l0 -0.67 0.14 -0.28c0.16,-0.31 0.24,-0.66 0.24,-1.01l0 -1.83c0,-0.2 -0.16,-0.35 -0.35,-0.35l-3.41 0c-1.24,0 -2.25,1.01 -2.25,2.25l0 0.02c0,0.29 0.07,0.58 0.2,0.84l0.18 0.36 0 0.58c0,0.92 0.45,1.74 1.14,2.23l0 0.51c0,0.08 0,0.11 -0.29,0.2l-0.71 0.2 -2.06 -0.75c0.01,-0.1 -0.03,-0.2 -0.1,-0.27l-0.66 -0.69 0 -1.16c0.07,-0.06 0.14,-0.12 0.21,-0.18 0.83,-0.78 1.31,-1.88 1.31,-3.02l0 -0.93c0.25,-0.55 0.38,-1.13 0.38,-1.72l0 -3.79c0,-0.2 -0.16,-0.35 -0.35,-0.35l-5.3 0c-1.87,0 -3.38,1.52 -3.38,3.38l0 0.76c0,0.6 0.13,1.17 0.38,1.72l0 0.8c0,1.32 0.59,2.52 1.51,3.3l0 1.19 -0.66 0.69c-0.07,0.07 -0.1,0.17 -0.1,0.27l-2.18 0.79c-0.16,0.06 -0.3,0.14 -0.44,0.23l-0.34 -0.17c1.02,-0.44 1.34,-1.07 1.36,-1.1 0.05,-0.1 0.05,-0.22 0,-0.32 -0.26,-0.51 -0.29,-1.45 -0.31,-2.2 -0.01,-0.25 -0.02,-0.49 -0.03,-0.7 -0.12,-1.7 -1.41,-2.98 -3,-2.98 -1.59,0 -2.88,1.28 -3,2.98 -0.02,0.21 -0.02,0.45 -0.03,0.7 -0.02,0.75 -0.06,1.69 -0.31,2.2 -0.05,0.1 -0.05,0.22 0,0.32 0.02,0.03 0.34,0.65 1.36,1.1l-0.95 0.48c-0.51,0.25 -0.82,0.76 -0.82,1.33l0 2.62c0,0.2 0.16,0.35 0.35,0.35 0.2,0 0.35,-0.16 0.35,-0.35l0 -2.62c0,-0.3 0.17,-0.57 0.43,-0.7l1.18 -0.59 0.41 0.39c0.29,0.27 0.66,0.41 1.03,0.41 0.37,0 0.74,-0.14 1.03,-0.41l0.41 -0.39 0.39 0.19c-0.18,0.29 -0.28,0.63 -0.28,0.99l0 2.73c0,0.2 0.16,0.35 0.35,0.35 0.2,0 0.35,-0.16 0.35,-0.35l0 -2.73c0,-0.49 0.31,-0.92 0.76,-1.09l2.3 -0.84 0.96 1.43c0.12,0.18 0.32,0.3 0.54,0.32 0.02,0 0.05,0 0.07,0 0.19,0 0.38,-0.08 0.52,-0.21l0.58 -0.58 0 3.69c0,0.2 0.16,0.35 0.35,0.35 0.2,0 0.35,-0.16 0.35,-0.35l0 -3.69 0.58 0.58c0.14,0.14 0.32,0.21 0.52,0.21 0.02,0 0.05,-0 0.07,-0 0.22,-0.02 0.42,-0.14 0.54,-0.32l0.96 -1.43 2.3 0.84c0.46,0.17 0.76,0.6 0.76,1.09l0 2.73c0,0.2 0.16,0.35 0.35,0.35 0.2,0 0.35,-0.16 0.35,-0.35l0 -2.73c0,-0.49 -0.2,-0.95 -0.52,-1.3l0.09 -0.03c0.09,-0.03 0.21,-0.06 0.33,-0.12l0.9 0.9 0 3.26c0,0.2 0.16,0.35 0.35,0.35 0.2,0 0.35,-0.16 0.35,-0.35l0 -3.26 0.9 -0.9c0.05,0.02 0.1,0.05 0.15,0.06l1.46 0.42c0.33,0.1 0.57,0.4 0.57,0.75l0 2.93c0,0.2 0.16,0.35 0.35,0.35 0.2,0 0.35,-0.16 0.35,-0.35l0 -2.93c0,-0.66 -0.44,-1.25 -1.08,-1.43zm-20.82 -0.63c-0.66,-0.24 -0.99,-0.56 -1.14,-0.73 0.1,-0.25 0.16,-0.54 0.2,-0.85 0.2,0.47 0.52,0.87 0.93,1.15l0 0.42zm2.03 0.96c-0.3,0.29 -0.78,0.29 -1.08,0l-0.33 -0.31c0.06,-0.1 0.09,-0.22 0.09,-0.35l0 -0.38c0.25,0.08 0.51,0.12 0.78,0.12 0.27,0 0.53,-0.04 0.78,-0.12l0 0.38c0,0.12 0.03,0.24 0.09,0.35l-0.33 0.31zm-0.54 -1.63c-1.06,0 -1.92,-0.86 -1.92,-1.92 0,-0.2 -0.16,-0.35 -0.35,-0.35 -0.02,0 -0.04,0 -0.06,0.01 0,-0.03 0,-0.06 0,-0.09 0.01,-0.24 0.02,-0.47 0.03,-0.67 0.05,-0.64 0.3,-1.22 0.72,-1.65 0.42,-0.43 0.98,-0.67 1.58,-0.67 0.6,0 1.16,0.24 1.58,0.67 0.42,0.43 0.67,1.02 0.72,1.65 0.01,0.2 0.02,0.43 0.03,0.67 0,0.02 0,0.04 0,0.06 -0.39,-0.59 -0.98,-1.03 -1.75,-1.28 -0.71,-0.23 -1.32,-0.21 -1.35,-0.21 -0.09,0 -0.18,0.04 -0.25,0.11l-0.64 0.66c-0.14,0.14 -0.13,0.36 0.01,0.5 0.14,0.14 0.36,0.13 0.5,-0.01l0.53 -0.55c0.46,0.02 1.93,0.19 2.5,1.46 -0.14,0.93 -0.94,1.62 -1.89,1.62zm1.49 0.67l0 -0.42c0.41,-0.28 0.74,-0.68 0.94,-1.15 0.04,0.31 0.11,0.59 0.2,0.85 -0.14,0.17 -0.47,0.49 -1.14,0.73zm3.41 -5.75l0 -0.88c0,-0.05 -0.01,-0.11 -0.04,-0.15 -0.23,-0.47 -0.34,-0.97 -0.34,-1.49l0 -0.76c0,-1.48 1.2,-2.68 2.68,-2.68l4.95 0 0 3.43c0,0.52 -0.12,1.02 -0.34,1.49 -0.02,0.05 -0.04,0.1 -0.04,0.15l0 1.01c0,0.96 -0.39,1.85 -1.09,2.5 -0.09,0.08 -0.18,0.16 -0.27,0.23 -0,0 -0,0 -0.01,0 -0.66,0.5 -1.46,0.74 -2.3,0.69 -1.8,-0.12 -3.2,-1.68 -3.2,-3.55zm1.99 7.13c-0,0 -0.01,0.01 -0.02,0.01 -0.01,-0 -0.02,-0.01 -0.02,-0.01l-1.1 -1.65 0.35 -0.37 1.67 1.14 -0.89 0.89zm1.44 -1.37l-1.92 -1.31 0 -0.66c0.5,0.27 1.05,0.44 1.64,0.47 0.09,0.01 0.19,0.01 0.28,0.01 0.68,0 1.33,-0.16 1.91,-0.47l0 0.65 -1.92 1.31zm1.48 1.36c-0,0 -0.01,0.01 -0.02,0.01 -0.01,0 -0.02,-0 -0.02,-0.01l-0.89 -0.89 1.67 -1.14 0.35 0.37 -1.1 1.65zm6.47 -0.3l-0.8 -0.8c0.01,-0.06 0.02,-0.13 0.02,-0.21l0 -0.15c0.22,0.07 0.46,0.12 0.7,0.12 0.03,0 0.05,0 0.08,0 0.27,0 0.53,-0.04 0.78,-0.12l0 0.14c0,0.07 0.01,0.14 0.03,0.21l-0.81 0.81zm1.34 -2.29c-0.38,0.36 -0.87,0.56 -1.39,0.54 -1.02,-0.03 -1.86,-0.93 -1.86,-2.01l0 -0.66c0,-0.06 -0.01,-0.11 -0.04,-0.16l-0.22 -0.44c-0.08,-0.16 -0.12,-0.34 -0.12,-0.52l0 -0.02c0,-0.85 0.69,-1.54 1.54,-1.54l3.05 0 0 1.47c0,0.24 -0.06,0.48 -0.16,0.69l-0.18 0.36c-0.02,0.05 -0.04,0.1 -0.04,0.16l0 0.76c0,0.52 -0.21,1.01 -0.58,1.38z"/>
    <path class="fil0" d="M27.01 21.35c-0.2,0 -0.35,0.16 -0.35,0.35l0 2.27c0,0.2 0.16,0.35 0.35,0.35 0.2,0 0.35,-0.16 0.35,-0.35l0 -2.27c0,-0.2 -0.16,-0.35 -0.35,-0.35z"/>
    <path class="fil0" d="M6.57 21.81c-0.2,0 -0.35,0.16 -0.35,0.35l0 1.8c0,0.2 0.16,0.35 0.35,0.35 0.2,0 0.35,-0.16 0.35,-0.35l0 -1.8c0,-0.2 -0.16,-0.35 -0.35,-0.35z"/>
    <path class="fil0" d="M19.7 10.85c-1.34,-1.34 -4.14,-1.08 -5.28,-0.91 -0.36,0.05 -0.62,0.36 -0.62,0.72l0 0.82c0,0.2 0.16,0.35 0.35,0.35 0.2,0 0.35,-0.16 0.35,-0.35l0 -0.82c0,-0.01 0.01,-0.02 0.02,-0.02 0.46,-0.07 1.36,-0.18 2.3,-0.11 1.1,0.07 1.9,0.35 2.38,0.82 0.14,0.14 0.36,0.14 0.5,0 0.14,-0.14 0.14,-0.36 0,-0.5z"/>
    <path class="fil0" d="M12.63 22.1c-0.2,0 -0.35,0.16 -0.35,0.35l0 1.51c0,0.2 0.16,0.35 0.35,0.35 0.2,0 0.35,-0.16 0.35,-0.35l0 -1.51c0,-0.2 -0.16,-0.35 -0.35,-0.35z"/>
    <path class="fil0" d="M20.96 22.1c-0.2,0 -0.35,0.16 -0.35,0.35l0 1.51c0,0.2 0.16,0.35 0.35,0.35 0.2,0 0.35,-0.16 0.35,-0.35l0 -1.51c0,-0.2 -0.16,-0.35 -0.35,-0.35z"/>
   </g>
   <circle class="fil1 str0" cx="16.79" cy="16.79" r="16.39"/>
  </g>
 </g>
</svg>
